HIERARCHY
ROOT Hips
{
  OFFSET 0 0 0
  CHANNELS 6 Xposition Yposition Zposition Zrotation Yrotation Xrotation
  JOINT LeftThigh
  {
    OFFSET 8.409438 0 -5.917753
    CHANNELS 3 Zrotation Yrotation Xrotation
    JOINT LeftLeg
    {
      OFFSET 0 0 -42.358652
      CHANNELS 3 Zrotation Yrotation Xrotation
      JOINT LeftFoot
      {
        OFFSET 0 0 -39.357303
        CHANNELS 3 Zrotation Yrotation Xrotation
      }
    }
  }
  JOINT RightThigh
  {
    OFFSET -8.409438 0 -5.917753
    CHANNELS 3 Zrotation Yrotation Xrotation
    JOINT RightLeg
    {
      OFFSET 0 0 -42.358652
      CHANNELS 3 Zrotation Yrotation Xrotation
      JOINT RightFoot
      {
        OFFSET 0 0 -39.357303
        CHANNELS 3 Zrotation Yrotation Xrotation
      }
    }
  }
  JOINT SpineLow
  {
    OFFSET 0 0 4.719101
    CHANNELS 3 Zrotation Yrotation Xrotation
    JOINT SpineMid
    {
      OFFSET 0 0 12.899191
      CHANNELS 3 Zrotation Yrotation Xrotation
      JOINT Chest
      {
        OFFSET 0 0 12.899191
        CHANNELS 3 Zrotation Yrotation Xrotation
        JOINT LeftShoulder
        {
          OFFSET 7.550562 1.41573 9.438202
          CHANNELS 3 Zrotation Yrotation Xrotation
          JOINT LeftArm
          {
            OFFSET 9.155056 0 4.247191
            CHANNELS 3 Zrotation Yrotation Xrotation
            JOINT LeftForearm
            {
              OFFSET 0 0 25.771955
              CHANNELS 3 Zrotation Yrotation Xrotation
              JOINT LeftHand
              {
                OFFSET 0 0 25.197169
                CHANNELS 3 Zrotation Yrotation Xrotation
              }
            }
          }
        }
        JOINT RightShoulder
        {
          OFFSET -7.550562 1.41573 9.438202
          CHANNELS 3 Zrotation Yrotation Xrotation
          JOINT RightArm
          {
            OFFSET -9.155056 0 4.247191
            CHANNELS 3 Zrotation Yrotation Xrotation
            JOINT RightForearm
            {
              OFFSET 0 0 -25.771955
              CHANNELS 3 Zrotation Yrotation Xrotation
              JOINT RightHand
              {
                OFFSET 0 0 -25.197169
                CHANNELS 3 Zrotation Yrotation Xrotation
              }
            }
          }
        }
        JOINT Neck
        {
          OFFSET 0 0 15.101124
          CHANNELS 3 Zrotation Yrotation Xrotation
          JOINT Head
          {
            OFFSET 0 0 11.325843
            CHANNELS 3 Zrotation Yrotation Xrotation
            End Site
            {
              OFFSET 0 0 14.157303
            }
          }
        }
      }
    }
  }
}
MOTION
Frames: 10
Frame Time: 0.0
0.0  89.887642  0.0  -0.830131  36.448908  -100.197831  -1.663339  -10.485292  -12.144021  -23.002285  17.106593  32.868354  0.755521  1.850273  2.721766  -14.942489  12.532936  4.091575  -12.05946  10.128204  24.729089  2.213779  3.922464  -1.209774  1.854994  -2.213875  2.949379  4.804582  -6.263611  7.907969  4.804582  -6.26361  7.907969  -28.992547  27.368786  -18.246406  129.148663  45.792068  -146.117433  -6.209623  26.839324  65.053251  69.38878  1.507708  -17.034187  -1.152703  5.978048  6.361459  46.442958  24.69506  7.590578  35.940332  -52.273291  -111.290977  48.306115  -20.005561  -15.194271  -39.391558  2.763592  -5.84515  -29.514989  2.462721  -4.225327  
0.0  89.887642  0.0  -0.29826  32.445033  -99.587865  -0.310874  -10.26558  -10.670915  -22.445932  15.562725  32.049246  0.992076  1.808226  2.794287  -14.798426  12.881377  3.473579  -10.52906  9.416804  23.070939  2.637037  3.744327  -1.252627  2.032721  -2.195633  2.99103  5.28894  -6.237948  8.005959  5.28894  -6.237949  8.005959  -24.515253  27.357745  -18.384758  136.681367  44.300323  -142.956374  -7.420333  28.942039  67.194575  74.48004  2.970184  -12.442606  1.604649  6.678633  5.511446  45.660475  25.66724  5.527199  33.882506  -50.16254  -111.045538  49.477879  -19.899749  -18.243646  -37.560655  3.361449  -5.785295  -28.133823  2.890593  -4.149204  
0.0  89.887642  0.0  0.177713  28.009977  -99.323356  0.87849  -9.988203  -8.735217  -21.660863  13.784894  31.131198  1.455403  1.808179  2.899877  -14.804898  13.325085  2.960912  -8.927775  8.723653  21.363886  3.106849  3.543644  -1.286132  2.520655  -2.369688  2.79461  6.626154  -6.751172  7.405368  6.626154  -6.751171  7.405368  -21.86791  28.454164  -17.187731  139.088086  43.383698  -143.509478  -14.077703  34.088499  69.022704  80.394173  1.692214  -7.999883  2.568938  7.588163  7.028784  43.659187  27.889724  2.316594  37.513308  -50.015729  -115.180835  50.949384  -19.582865  -16.306198  -36.776714  4.986316  -5.460086  -27.523322  4.086673  -3.80758  
0.0  89.887642  0.0  0.548972  23.107841  -99.737053  1.828516  -9.792511  -6.116425  -20.457167  11.902094  30.173068  2.094785  1.81251  2.986325  -14.793097  13.815243  2.719739  -7.384926  8.158055  19.833391  3.683918  3.323797  -1.354501  3.320807  -2.438756  2.674018  8.82442  -7.010169  6.981827  8.824419  -7.010169  6.981826  -20.664687  27.885867  -15.620114  138.432119  42.026853  -146.35012  -18.186729  39.11681  72.343161  79.879738  -2.676481  -7.075274  1.918464  7.020906  8.993276  40.035543  30.600031  -2.217247  42.267957  -49.891463  -119.137615  50.359005  -20.552939  -13.972649  -36.772357  6.000431  -4.678131  -27.510019  4.803004  -3.156035  
0.0  89.887642  0.0  0.563514  18.198838  -100.225726  2.108991  -9.921892  -3.515531  -18.517726  10.009522  29.183141  2.748221  1.812173  3.052144  -15.244852  13.921182  2.275485  -6.125695  7.766184  18.401522  4.483772  3.051513  -1.435436  4.191119  -2.348164  2.452428  11.24032  -6.814179  6.293436  11.24032  -6.814179  6.293436  -19.574337  25.511981  -13.206348  136.897169  40.173691  -149.236536  -21.969913  42.401176  74.22491  78.045558  -8.971448  -12.028673  0.742813  4.856225  12.375282  35.666101  34.019511  -8.577272  48.329458  -49.866829  -123.900165  49.109713  -21.532674  -11.628855  -36.816822  6.428743  -3.166495  -27.551051  5.034282  -1.991422  
0.0  89.887642  0.0  0.624506  12.890615  -100.419914  2.361534  -10.098932  -1.100347  -15.978059  8.127535  28.039887  3.246858  1.870811  3.006022  -15.648232  13.970186  1.319507  -5.310069  7.292177  17.141938  5.39495  2.770501  -1.494207  5.099364  -2.071417  2.183135  13.773898  -6.087828  5.514695  13.773899  -6.087828  5.514695  -18.383406  21.672828  -10.560519  135.797956  38.217338  -151.466841  -21.588212  47.814937  81.599427  80.316922  -6.792242  -3.135821  -1.35204  1.492489  17.152228  31.373847  39.703268  -16.067503  43.397126  -48.839573  -121.155727  46.421731  -25.267908  -15.97593  -36.565241  6.238243  -1.279936  -27.383698  4.775649  -0.586147  
0.0  89.887642  0.0  0.726611  5.296321  -101.405886  4.371863  -10.71927  2.138951  -12.881618  6.39146  26.779304  3.502603  2.050513  2.73537  -13.793172  13.87526  1.187622  -4.844274  6.586963  15.963013  6.216881  2.431659  -1.490879  6.066659  -2.045991  1.885925  16.452892  -6.020395  4.617231  16.452892  -6.020395  4.617231  -15.836803  18.798424  -6.824049  136.60926  36.809423  -152.275761  -17.558366  50.153119  89.92052  78.304967  -3.407843  4.504442  -2.976112  1.413614  18.775559  30.778955  41.133602  -22.110275  32.487285  -46.714036  -113.282399  47.231795  -25.329335  -21.147894  -35.395049  6.888992  0.616283  -26.52096  5.151553  0.866616  
0.0  89.887642  0.0  0.877257  -0.402016  -101.407508  4.456578  -10.799324  4.433606  -9.262994  4.762683  25.371357  3.537779  2.20948  2.323993  -14.26248  13.639342  0.112114  -4.560362  6.057173  14.74445  6.730835  1.973067  -1.465499  6.469209  -2.026287  1.561693  17.586383  -5.907212  3.702162  17.586383  -5.907212  3.702162  -12.231838  16.515159  -3.613345  138.102358  35.863035  -152.995014  -21.008326  51.11879  90.588617  77.709492  -2.960185  3.774847  -2.720307  1.366003  19.73726  29.161389  43.509665  -27.608585  33.98912  -47.415113  -114.526212  53.099502  -22.322862  -17.465844  -33.254716  7.542261  1.886577  -24.928244  5.57368  1.832576  
0.0  89.887642  0.0  1.076143  -6.030684  -101.633228  4.466644  -10.714521  6.901465  -5.409903  3.291568  23.95185  3.868935  2.356199  2.041322  -14.700756  13.284731  -0.769214  -4.584932  5.695752  13.76534  7.124535  1.596296  -1.344074  6.688781  -2.132525  1.396529  18.201215  -6.160881  3.204171  18.201213  -6.160881  3.20417  -8.425639  15.120903  -1.261069  139.874051  34.605764  -154.710822  -20.295925  53.090516  94.26072  76.700354  -7.125309  2.442714  -2.949294  1.548599  20.386735  27.010333  46.6095  -33.689241  35.050405  -47.99812  -114.564695  59.098557  -20.425283  -13.700039  -30.648178  8.30308  2.547652  -22.980679  6.117985  2.333963  
0.0  89.887642  0.0  1.187714  -11.869721  -102.123901  4.827517  -10.567768  9.485049  -1.695342  1.931135  22.558646  4.232905  2.503265  1.737129  -14.491767  12.67332  -1.176009  -4.70676  5.435236  12.940798  7.334522  1.403322  -1.197472  6.981507  -2.133667  1.197165  19.022121  -6.119276  2.634103  19.022121  -6.119275  2.634103  -5.516608  12.680004  0.245928  142.915768  32.42715  -157.789419  -14.138093  54.512036  103.13172  75.887776  -7.415072  2.544378  -3.099082  0.658607  21.160116  22.804074  49.336114  -41.025925  30.401532  -46.004758  -109.436976  62.837653  -18.280303  -12.211939  -28.151947  8.47843  3.687917  -21.127322  6.20497  3.162403  
